<?xml version="1.0" encoding="iso-8859-1"?>
<!-- Uploaded to: SVG Repo, www.svgrepo.com, Generator: SVG Repo Mixer Tools -->
<svg version="1.1" id="Layer_1" xmlns="http://www.w3.org/2000/svg" xmlns:xlink="http://www.w3.org/1999/xlink" 
	 viewBox="0 0 512 512" xml:space="preserve">
<g>
	<polygon style="fill:#8AD5DD;" points="211.488,307.064 0,182.112 0,484.584 255.84,333.384 	"/>
	<polygon style="fill:#8AD5DD;" points="256.264,333.536 511.88,484.584 511.88,182.176 465.832,209.376 465.832,209.32 
		465.712,209.392 465.712,209.616 	"/>
</g>
<polygon style="fill:#9ADEE2;" points="256.264,333.536 256.184,333.584 255.856,333.392 0,484.584 511.88,484.584 "/>
<path style="fill:#EFEFEF;" d="M255.856,333.392l0.328,0.192l0.08-0.048l209.44-123.928v-0.216V27.416L46.288,27.552v181.456
	l165.2,98.048l44.344,26.32L255.856,333.392z M236.616,99.304h188.712v10.24H236.616V99.304z M236.616,119.784h188.712v10.24
	H236.616V119.784z M236.616,140.264h188.712v10.24H236.616V140.264z M231.208,215.424L256,241.072l24.792-25.648l11.256,11.136
	L256,263.856l-36.048-37.288L231.208,215.424z M207.216,171.296H89.272V72.168h117.952v99.128H207.216z"/>
<g>
	<polygon style="fill:#6CB8BC;" points="46.168,147.208 0,182.112 46.168,209.376 	"/>
	<polygon style="fill:#6CB8BC;" points="511.88,182.176 512,182.112 465.832,147.208 465.832,209.32 465.832,209.376 	"/>
</g>
<polygon style="fill:#C9C9C9;" points="292.048,226.568 280.792,215.424 256,241.072 231.208,215.424 219.952,226.568 256,263.856 
	"/>
<path style="fill:#DB2B42;" d="M89.272,171.296h117.952V72.168H89.272V171.296z M183.616,139.416c0,16.272,0,20.048,0,20.048
	s-34.664,0-34.544,0l16.864-36.552C165.928,122.912,183.616,123.144,183.616,139.416z M148.24,149.792l-12.144-26.88h12.144h12.144
	L148.24,149.792z M148.24,84c9.64,0,17.448,7.816,17.448,17.448s-7.816,17.448-17.448,17.448s-17.448-7.816-17.448-17.448
	S138.608,84,148.24,84z M112.872,139.416c0-16.272,17.688-16.504,17.688-16.504l16.864,36.552c0.12,0-34.544,0-34.544,0
	S112.872,155.688,112.872,139.416z"/>
<g>
	<circle style="fill:#FFFFFF;" cx="148.24" cy="101.448" r="17.448"/>
	<path style="fill:#FFFFFF;" d="M130.552,122.912c0,0-17.688,0.232-17.688,16.504s0,20.048,0,20.048s34.664,0,34.544,0
		L130.552,122.912z"/>
	<path style="fill:#FFFFFF;" d="M183.616,159.464c0,0,0-3.776,0-20.048s-17.688-16.504-17.688-16.504l-16.864,36.552
		C148.952,159.464,183.616,159.464,183.616,159.464z"/>
	<polygon style="fill:#FFFFFF;" points="148.24,122.912 136.096,122.912 148.24,149.792 160.384,122.912 	"/>
</g>
<g>
	<rect x="236.616" y="99.304" style="fill:#C9C9C9;" width="188.712" height="10.24"/>
	<rect x="236.616" y="119.784" style="fill:#C9C9C9;" width="188.712" height="10.24"/>
	<rect x="236.616" y="140.264" style="fill:#C9C9C9;" width="188.712" height="10.24"/>
</g>
</svg>