<svg width="37" height="36" viewBox="0 0 37 36" fill="none" xmlns="http://www.w3.org/2000/svg">
<rect width="36.2571" height="36" rx="18" fill="white"/>
<path d="M18.1285 7.71387C19.4925 7.71387 20.8006 8.2557 21.7651 9.22018C22.7296 10.1846 23.2714 11.4928 23.2714 12.8567V15.9424C24.0898 15.9424 24.8746 16.2675 25.4533 16.8462C26.032 17.4249 26.3571 18.2098 26.3571 19.0282V25.1996C26.3571 26.018 26.032 26.8028 25.4533 27.3815C24.8746 27.9602 24.0898 28.2853 23.2714 28.2853H12.9857C12.1673 28.2853 11.3824 27.9602 10.8037 27.3815C10.2251 26.8028 9.89996 26.018 9.89996 25.1996V19.0282C9.89996 18.2098 10.2251 17.4249 10.8037 16.8462C11.3824 16.2675 12.1673 15.9424 12.9857 15.9424V12.8567C12.9857 11.4928 13.5275 10.1846 14.492 9.22018C15.4565 8.2557 16.7646 7.71387 18.1285 7.71387ZM18.1285 20.0567C17.6095 20.0566 17.1097 20.2526 16.7291 20.6055C16.3486 20.9584 16.1155 21.442 16.0765 21.9596L16.0714 22.1139C16.0714 22.5207 16.192 22.9185 16.4181 23.2568C16.6441 23.595 16.9654 23.8587 17.3413 24.0144C17.7172 24.1701 18.1308 24.2109 18.5299 24.1315C18.9289 24.0521 19.2955 23.8562 19.5832 23.5685C19.8709 23.2808 20.0668 22.9142 20.1462 22.5152C20.2255 22.1161 20.1848 21.7025 20.0291 21.3266C19.8734 20.9507 19.6097 20.6295 19.2714 20.4034C18.9331 20.1774 18.5354 20.0567 18.1285 20.0567ZM18.1285 9.77101C17.3102 9.77101 16.5253 10.0961 15.9466 10.6748C15.3679 11.2535 15.0428 12.0383 15.0428 12.8567V15.9424H21.2142V12.8567C21.2142 12.0383 20.8891 11.2535 20.3105 10.6748C19.7318 10.0961 18.9469 9.77101 18.1285 9.77101Z" fill="url(#paint0_linear_176_3014)"/>
<defs>
<linearGradient id="paint0_linear_176_3014" x1="18.2216" y1="7.71387" x2="18.2216" y2="25.449" gradientUnits="userSpaceOnUse">
<stop offset="0.0417313" stop-color="#0063BE"/>
<stop offset="1" stop-color="#00264A"/>
</linearGradient>
</defs>
</svg>
