<svg width="21" height="22" viewBox="0 0 21 22" fill="none" xmlns="http://www.w3.org/2000/svg">
<path d="M20.4676 13.642L13.5992 20.5088C13.2732 20.8325 12.8324 21.0141 12.3731 21.0141C11.9137 21.0141 11.4729 20.8325 11.1469 20.5088L1.31928 10.6812C0.586121 9.86388 0.159631 8.81729 0.112732 7.72035L0.180023 1.9599C0.188479 1.49715 0.376279 1.05577 0.703833 0.728804C1.03139 0.401834 1.4731 0.214821 1.93586 0.207192L7.67909 0.15242C8.77607 0.201856 9.82216 0.62925 10.6399 1.3621L20.4676 11.1898C20.7913 11.5157 20.9729 11.9565 20.9729 12.4159C20.9729 12.8753 20.7913 13.316 20.4676 13.642ZM4.79339 3.64687C4.79339 3.40174 4.7207 3.16211 4.58451 2.95829C4.44832 2.75447 4.25475 2.59561 4.02828 2.50181C3.80181 2.408 3.5526 2.38345 3.31218 2.43128C3.07176 2.4791 2.85092 2.59714 2.67758 2.77048C2.50425 2.94381 2.3862 3.16465 2.33838 3.40508C2.29056 3.6455 2.3151 3.8947 2.40891 4.12118C2.50272 4.34765 2.66158 4.54122 2.8654 4.67741C3.06922 4.8136 3.30885 4.88629 3.55398 4.88629C3.88269 4.88629 4.19794 4.75571 4.43038 4.52327C4.66281 4.29084 4.79339 3.97559 4.79339 3.64687ZM15.1124 15.1459C15.1931 15.0653 15.257 14.9697 15.3007 14.8645C15.3443 14.7592 15.3668 14.6464 15.3668 14.5324C15.3668 14.4185 15.3443 14.3056 15.3007 14.2004C15.257 14.0951 15.1931 13.9995 15.1124 13.919L14.4849 13.2914C14.7437 12.8947 14.9292 12.4548 15.0326 11.9926C15.1429 11.5804 15.1437 11.1465 15.0347 10.7339C14.9257 10.3214 14.7108 9.94445 14.4114 9.6405C13.9853 9.2161 13.4199 8.96038 12.8198 8.92064C12.4238 8.89508 12.0264 8.94012 11.6462 9.05365H11.643C11.3173 9.15628 11.0068 9.30206 10.7197 9.48713H10.715C10.4675 9.64866 10.2377 9.83593 10.0296 10.0458C9.90429 10.1716 9.76871 10.2868 9.62428 10.3901C9.46635 10.5031 9.29295 10.5927 9.10943 10.6561H9.1063C8.93593 10.712 8.75588 10.7323 8.57736 10.7156H8.57423C8.39141 10.7009 8.2186 10.6261 8.08284 10.5028C7.98351 10.3907 7.91579 10.2543 7.88664 10.1074C7.85749 9.96055 7.86795 9.80858 7.91696 9.6671C8.0265 9.24556 8.24823 8.86159 8.55858 8.55601C8.67085 8.45968 8.79128 8.37328 8.91851 8.2978L8.96546 8.26807C9.12488 8.17054 9.29369 8.08928 9.46936 8.02551C9.63203 7.96448 9.80421 7.93269 9.97795 7.93161C10.2079 7.93161 10.4284 7.84027 10.591 7.67768C10.7536 7.5151 10.8449 7.29458 10.8449 7.06465C10.8449 6.83471 10.7536 6.6142 10.591 6.45161C10.4284 6.28903 10.2079 6.19768 9.97795 6.19768C9.59463 6.19922 9.21309 6.26917 8.85435 6.40425C8.56506 6.51086 8.28763 6.64722 8.02651 6.81113L8.01086 6.82052L7.38802 6.19456C7.30736 6.114 7.21162 6.05011 7.10627 6.00655C7.00092 5.963 6.88802 5.94061 6.77402 5.94069C6.66002 5.94076 6.54715 5.96328 6.44186 6.00698C6.33656 6.05067 6.2409 6.11468 6.16034 6.19534C6.07979 6.276 6.0159 6.37174 5.97234 6.47709C5.92878 6.58244 5.9064 6.69534 5.90648 6.80934C5.90655 6.92334 5.92907 7.03621 5.97277 7.1415C6.01646 7.2468 6.08047 7.34245 6.16113 7.42301L6.76831 8.02863C6.51523 8.41254 6.33144 8.83786 6.22529 9.28526C6.11197 9.71245 6.11061 10.1616 6.22135 10.5895C6.33208 11.0174 6.55118 11.4095 6.85751 11.7281C7.27332 12.1353 7.81641 12.3872 8.39583 12.4417C8.82087 12.4853 9.25032 12.4378 9.65558 12.3024C10.004 12.1853 10.3331 12.017 10.6321 11.8032C10.8541 11.644 11.0624 11.4665 11.2549 11.2727C11.3767 11.1504 11.5109 11.0413 11.6555 10.9472C11.8116 10.8473 11.9799 10.7679 12.1563 10.7109C12.3331 10.6599 12.5173 10.6398 12.7009 10.6514C12.8825 10.6638 13.0535 10.741 13.1829 10.869C13.2611 10.9456 13.4411 11.1272 13.3347 11.6326C13.2275 12.0648 13.004 12.4593 12.6884 12.7735C12.5507 12.898 12.4043 13.0126 12.2502 13.1162C12.0992 13.2138 11.9387 13.2961 11.7713 13.3619C11.612 13.4232 11.4403 13.4458 11.2706 13.4276C11.1569 13.4194 11.0428 13.4336 10.9346 13.4695C10.8265 13.5054 10.7265 13.5623 10.6403 13.6368C10.5541 13.7113 10.4835 13.8021 10.4324 13.904C10.3813 14.0058 10.3508 14.1167 10.3426 14.2304C10.3344 14.344 10.3486 14.4582 10.3845 14.5663C10.4204 14.6745 10.4772 14.7745 10.5518 14.8607C10.6263 14.9468 10.7171 15.0175 10.819 15.0686C10.9208 15.1196 11.0317 15.1502 11.1454 15.1584C11.2268 15.1646 11.3066 15.1662 11.3832 15.1662C11.7511 15.1702 12.1159 15.0988 12.4552 14.9565C12.7341 14.8445 13.0001 14.7029 13.2486 14.534L13.2643 14.523L13.8855 15.1459C14.0483 15.3078 14.2686 15.3988 14.4982 15.3988C14.7278 15.3988 14.9481 15.3078 15.1109 15.1459H15.1124Z" fill="#9DCC95"/>
</svg>
