<svg width="26" height="26" viewBox="0 0 26 26" fill="none" xmlns="http://www.w3.org/2000/svg">
<g clip-path="url(#clip0_4_17)">
<path d="M15.5926 0.771744H1.28655C0.929974 0.771744 0.64093 1.06079 0.64093 1.41737V12.0197C0.64093 12.3763 0.929974 12.6653 1.28655 12.6653H15.33L13.6304 11.61C13.5192 11.541 13.4185 11.4615 13.3281 11.3741H1.93213V2.06294H14.947V8.3318C15.1454 8.37371 15.34 8.45005 15.5221 8.56321L16.2382 9.00781V1.41737C16.2382 1.06079 15.9492 0.771744 15.5926 0.771744Z" fill="#1F60A0"/>
<path d="M11.3711 6.83272C11.1558 6.66301 10.8435 6.69987 10.6737 6.91525C10.5039 7.13062 10.5408 7.44292 10.7562 7.61272L12.947 9.34016C12.9782 9.27232 13.0133 9.20563 13.0537 9.14057C13.1963 8.91084 13.3826 8.72491 13.5949 8.58613L11.3711 6.83272Z" fill="#1F60A0"/>
<path d="M21.4074 6.072C22.4337 6.072 23.2656 5.24005 23.2656 4.21379C23.2656 3.18754 22.4337 2.35559 21.4074 2.35559C20.3811 2.35559 19.5492 3.18754 19.5492 4.21379C19.5492 5.24005 20.3811 6.072 21.4074 6.072Z" fill="#1F60A0"/>
<path d="M25.9399 8.7758C25.9341 7.61171 24.9823 6.66463 23.8181 6.66463H22.9183C22.0361 8.95254 22.3578 8.11831 21.8048 9.55259L22.0378 8.3788C22.0549 8.29252 22.0411 8.20291 21.9987 8.12583L21.6335 7.46165L21.9576 6.87218C21.9801 6.83131 21.9793 6.78169 21.9556 6.74156C21.9319 6.70144 21.8887 6.67685 21.8421 6.67685H20.9535C20.9069 6.67685 20.8638 6.70144 20.8401 6.74156C20.8163 6.78169 20.8156 6.83136 20.838 6.87218L21.1615 7.46041L20.797 8.1234C20.7538 8.20202 20.7402 8.2935 20.7589 8.38123L21.0279 9.55259C20.8736 9.15247 19.985 6.94378 19.8773 6.66463H18.9952C17.831 6.66463 16.8792 7.61166 16.8734 8.7758C16.8686 9.74382 16.8726 8.93309 16.865 10.4523L15.0491 9.32485C14.6285 9.06361 14.0757 9.19289 13.8145 9.6136C13.5533 10.0343 13.6826 10.5871 14.1032 10.8482L17.2806 12.821C17.8757 13.1906 18.6466 12.7633 18.6501 12.0638C18.6519 11.713 18.6646 9.20363 18.6666 8.78476C18.6673 8.68125 18.7515 8.59794 18.8549 8.59828C18.9583 8.59863 19.0419 8.68254 19.0419 8.786C19.041 13.1065 19.0224 14.3143 19.0224 23.8569C19.0224 24.4512 19.5041 24.9329 20.0983 24.9329C20.6925 24.9329 21.1742 24.4512 21.1742 23.8569V15.257H21.6387V23.8569C21.6387 24.4512 22.1204 24.9329 22.7146 24.9329C23.3089 24.9329 23.7906 24.4512 23.7906 23.8569L23.791 8.7857C23.791 8.68769 23.8703 8.60813 23.9684 8.60783C24.0664 8.60753 24.1463 8.6867 24.1468 8.78481L24.1799 15.3718C24.1823 15.8654 24.5833 16.2638 25.0763 16.2638C25.0779 16.2638 25.0794 16.2638 25.081 16.2638C25.5761 16.2614 25.9756 15.8579 25.973 15.3628L25.9399 8.7758Z" fill="#1F60A0"/>
</g>
<defs>
<clipPath id="clip0_4_17">
<rect width="25.3321" height="25.3321" fill="white" transform="translate(0.640808 0.18631)"/>
</clipPath>
</defs>
</svg>
