<svg width="23" height="23" viewBox="0 0 23 23" fill="none" xmlns="http://www.w3.org/2000/svg">
<path d="M22.9729 11.8241C22.9729 14.7881 21.7954 17.6308 19.6995 19.7267C17.6036 21.8226 14.761 23 11.797 23C8.83292 23 5.99028 21.8226 3.89439 19.7267C1.79849 17.6308 0.621033 14.7881 0.621033 11.8241C0.621033 11.5771 0.719154 11.3402 0.893812 11.1656C1.06847 10.9909 1.30536 10.8928 1.55236 10.8928C1.79936 10.8928 2.03625 10.9909 2.21091 11.1656C2.38557 11.3402 2.48369 11.5771 2.48369 11.8241C2.48369 13.6661 3.0299 15.4667 4.05326 16.9983C5.07661 18.5298 6.53115 19.7235 8.23292 20.4284C9.9347 21.1333 11.8073 21.3178 13.6139 20.9584C15.4205 20.5991 17.08 19.7121 18.3824 18.4096C19.6849 17.1071 20.5719 15.4476 20.9313 13.641C21.2906 11.8344 21.1062 9.96185 20.4013 8.26007C19.6964 6.55829 18.5027 5.10376 16.9711 4.0804C15.4396 3.05705 13.6389 2.51083 11.797 2.51083C11.55 2.51083 11.3131 2.41271 11.1384 2.23805C10.9638 2.0634 10.8656 1.82651 10.8656 1.57951C10.8656 1.3325 10.9638 1.09562 11.1384 0.920958C11.3131 0.7463 11.55 0.648178 11.797 0.648178C14.76 0.651383 17.6008 1.82987 19.696 3.92507C21.7912 6.02027 22.9697 8.86105 22.9729 11.8241ZM10.1923 10.8928H8.07165C7.82465 10.8928 7.58776 10.9909 7.4131 11.1656C7.23844 11.3402 7.14032 11.5771 7.14032 11.8241C7.14032 12.0711 7.23844 12.308 7.4131 12.4827C7.58776 12.6573 7.82465 12.7554 8.07165 12.7554H10.1923C10.3345 13.0024 10.5317 13.2134 10.7685 13.372C11.0054 13.5305 11.2756 13.6324 11.5582 13.6698C11.8407 13.7072 12.1281 13.679 12.3981 13.5875C12.668 13.4959 12.9132 13.3435 13.1148 13.1419C13.3163 12.9404 13.4688 12.6951 13.5603 12.4252C13.6519 12.1553 13.68 11.8679 13.6427 11.5853C13.6053 11.3027 13.5034 11.0326 13.3448 10.7957C13.1863 10.5588 12.9753 10.3617 12.7283 10.2194V7.16747C12.7283 6.92046 12.6302 6.68358 12.4555 6.50892C12.2808 6.33426 12.044 6.23614 11.797 6.23614C11.55 6.23614 11.3131 6.33426 11.1384 6.50892C10.9638 6.68358 10.8656 6.92046 10.8656 7.16747V10.2194C10.5866 10.3817 10.3546 10.6138 10.1923 10.8928ZM2.32257 8.82896C2.50677 8.82896 2.68683 8.77433 2.83999 8.672C2.99314 8.56966 3.11251 8.42421 3.183 8.25403C3.25349 8.08385 3.27193 7.8966 3.236 7.71594C3.20006 7.53528 3.11136 7.36933 2.98112 7.23908C2.85087 7.10883 2.68492 7.02013 2.50426 6.9842C2.3236 6.94826 2.13634 6.9667 1.96616 7.03719C1.79599 7.10768 1.65053 7.22706 1.5482 7.38021C1.44586 7.53337 1.39124 7.71343 1.39124 7.89763C1.39124 8.14463 1.48936 8.38152 1.66402 8.55618C1.83868 8.73083 2.07556 8.82896 2.32257 8.82896ZM4.55216 5.4976C4.73636 5.4976 4.91643 5.44298 5.06958 5.34064C5.22274 5.23831 5.34211 5.09285 5.4126 4.92267C5.48309 4.7525 5.50153 4.56524 5.4656 4.38458C5.42966 4.20392 5.34096 4.03797 5.21071 3.90772C5.08046 3.77748 4.91452 3.68877 4.73386 3.65284C4.5532 3.6169 4.36594 3.63535 4.19576 3.70584C4.02558 3.77633 3.88013 3.8957 3.77779 4.04885C3.67546 4.20201 3.62084 4.38207 3.62084 4.56627C3.62084 4.81327 3.71896 5.05016 3.89362 5.22482C4.06827 5.39948 4.30516 5.4976 4.55216 5.4976ZM7.86583 3.29408C8.05003 3.29408 8.23009 3.23946 8.38324 3.13712C8.5364 3.03479 8.65577 2.88933 8.72626 2.71915C8.79675 2.54898 8.81519 2.36172 8.77926 2.18106C8.74332 2.0004 8.65462 1.83445 8.52437 1.7042C8.39413 1.57396 8.22818 1.48525 8.04752 1.44932C7.86686 1.41338 7.6796 1.43183 7.50942 1.50232C7.33925 1.57281 7.19379 1.69218 7.09146 1.84533C6.98912 1.99849 6.9345 2.17855 6.9345 2.36275C6.9345 2.60975 7.03262 2.84664 7.20728 3.0213C7.38194 3.19596 7.61882 3.29408 7.86583 3.29408Z" fill="#DC8B50"/>
</svg>
